<svg width="130" height="65" viewBox="0 0 130 65" fill="none" xmlns="http://www.w3.org/2000/svg">
<mask id="mask0_11_22" style="mask-type:alpha" maskUnits="userSpaceOnUse" x="1" y="0" width="128" height="64">
<rect width="128" height="64" transform="translate(1)" fill="url(#paint0_linear_11_22)"/>
</mask>
<g mask="url(#mask0_11_22)">
<path opacity="0.1" d="M125.442 10.5347L128.928 19.2498C128.976 19.3679 129 19.4939 129 19.6212V63C129 63.5523 128.552 64 128 64H2.32573C1.66135 64 1.18169 63.3641 1.36421 62.7253L5.03923 49.8627C5.26236 49.0817 6.27422 48.8785 6.78162 49.5127L9.53738 52.9574C9.87479 53.3792 10.4861 53.4568 10.9182 53.1327L14.6574 50.3284C14.6953 50.3 14.7311 50.2689 14.7645 50.2355L18.8854 46.1146C19.1337 45.8663 19.4942 45.7664 19.835 45.8516L22.9588 46.6325C23.4657 46.7593 23.9847 46.4744 24.15 45.9786L27.521 35.8657C27.8205 34.9669 29.0857 34.9499 29.4094 35.8402L32.3245 43.8568C32.6047 44.6271 33.6417 44.7517 34.0964 44.0697L37.0817 39.5917C37.3615 39.172 37.9099 39.0264 38.361 39.2519L41.2069 40.6749C41.7168 40.9298 42.3363 40.7075 42.5679 40.1866L45.564 33.4453C45.9471 32.5833 47.201 32.6824 47.444 33.5938L50.6056 45.4494C50.8428 46.339 52.0545 46.4625 52.4662 45.639L54.8174 40.9366C55.2101 40.1513 56.3516 40.217 56.6517 41.042L59.0361 47.5992C59.3934 48.5819 60.8289 48.4261 60.9671 47.3896L64.7326 19.1487C64.842 18.3276 65.8452 17.988 66.4309 18.5737L68.4008 20.5437C68.9328 21.0757 69.8395 20.8518 70.0629 20.1335L73.6607 8.56028C73.8818 7.84897 74.7751 7.62045 75.3106 8.13817L77.6438 10.3937C78.1547 10.8876 79.0033 10.7059 79.2673 10.0461L82.4587 2.06757C82.7791 1.26644 83.8957 1.22 84.2816 1.99175L87.7081 8.84472C87.8048 9.03824 87.9618 9.19517 88.1553 9.29193L91.7953 11.112C92.1748 11.3017 92.6326 11.2313 92.9376 10.9365L96.2207 7.76265C96.6405 7.35674 97.3175 7.39549 97.6883 7.84667L100.799 11.6314C101.199 12.1182 101.944 12.1182 102.344 11.6314L104.842 8.59198C105.371 7.94854 106.408 8.1957 106.59 9.00846L110.1 24.6869C110.306 25.6049 111.55 25.757 111.971 24.9156L114.75 19.3574C115.029 18.7994 115.745 18.6303 116.244 19.0046L118.747 20.8818C119.293 21.2914 120.08 21.0456 120.296 20.3981L123.565 10.5899C123.86 9.7061 125.096 9.66975 125.442 10.5347Z" fill="#12B76A"/>
</g>
<path d="M129 19.4286L125.442 10.5347C125.096 9.66975 123.86 9.7061 123.565 10.5899L120.296 20.3981C120.08 21.0456 119.293 21.2914 118.747 20.8818L116.244 19.0046C115.745 18.6303 115.029 18.7994 114.75 19.3574L111.971 24.9156C111.55 25.757 110.306 25.6049 110.1 24.6869L106.59 9.00846C106.408 8.1957 105.371 7.94854 104.842 8.59198L102.344 11.6314C101.944 12.1182 101.199 12.1182 100.799 11.6314L97.6883 7.84667C97.3175 7.39549 96.6405 7.35674 96.2207 7.76265L92.9376 10.9365C92.6326 11.2313 92.1748 11.3017 91.7953 11.112L88.1553 9.29193C87.9618 9.19517 87.8048 9.03824 87.7081 8.84472L84.2816 1.99175C83.8957 1.22 82.7791 1.26644 82.4587 2.06757L79.2673 10.0461C79.0034 10.7059 78.1547 10.8876 77.6438 10.3937L75.3106 8.13817C74.7751 7.62045 73.8818 7.84897 73.6607 8.56028L70.0629 20.1335C69.8395 20.8518 68.9328 21.0757 68.4008 20.5437L66.4309 18.5737C65.8452 17.988 64.842 18.3276 64.7326 19.1487L60.9671 47.3896C60.8289 48.4261 59.3934 48.5819 59.0361 47.5992L56.6517 41.042C56.3516 40.217 55.2101 40.1513 54.8174 40.9366L52.4662 45.639C52.0545 46.4625 50.8428 46.339 50.6056 45.4494L47.4441 33.5938C47.201 32.6824 45.9471 32.5833 45.564 33.4453L42.5679 40.1866C42.3363 40.7075 41.7168 40.9298 41.2069 40.6749L38.361 39.2519C37.9099 39.0264 37.3615 39.172 37.0818 39.5917L34.0964 44.0697C33.6417 44.7517 32.6047 44.6271 32.3245 43.8568L29.4094 35.8402C29.0857 34.9499 27.8205 34.9669 27.521 35.8657L24.15 45.9786C23.9847 46.4744 23.4657 46.7593 22.9588 46.6325L19.835 45.8516C19.4942 45.7664 19.1337 45.8663 18.8854 46.1146L14.7645 50.2355C14.7311 50.2689 14.6953 50.3 14.6574 50.3284L10.9182 53.1327C10.4861 53.4568 9.87479 53.3792 9.53738 52.9574L6.78162 49.5127C6.27422 48.8785 5.26236 49.0817 5.03923 49.8627L1 64" stroke="#12B76A" stroke-width="2" stroke-linecap="round" stroke-linejoin="round"/>
<g opacity="0.2">
<rect x="56.4287" y="10" width="17.25" height="17.25" rx="8.625" stroke="#12B76A" stroke-width="2"/>
</g>
<rect x="60.8037" y="14.375" width="8.5" height="8.5" rx="4.25" fill="white"/>
<rect x="60.8037" y="14.375" width="8.5" height="8.5" rx="4.25" stroke="#12B76A" stroke-width="2"/>
<defs>
<linearGradient id="paint0_linear_11_22" x1="64" y1="0" x2="64" y2="64" gradientUnits="userSpaceOnUse">
<stop/>
<stop offset="1" stop-opacity="0"/>
</linearGradient>
</defs>
</svg>
