<svg width="100" height="40" viewBox="0 0 100 40" xmlns="http://www.w3.org/2000/svg">
  <path d="M0,30 L5,28 L10,25 L15,26 L20,24 L25,25 L30,20 L35,22 L40,18 L45,15 L50,18 L55,14 L60,16 L65,12 L70,14 L75,10 L80,8 L85,10 L90,5 L95,3 L100,5" 
        fill="none" 
        stroke="#10B981" 
        stroke-width="2" 
        stroke-linecap="round" 
        stroke-linejoin="round" />
  <path d="M0,30 L5,28 L10,25 L15,26 L20,24 L25,25 L30,20 L35,22 L40,18 L45,15 L50,18 L55,14 L60,16 L65,12 L70,14 L75,10 L80,8 L85,10 L90,5 L95,3 L100,5" 
        fill="rgba(16, 185, 129, 0.1)" 
        stroke="none"
        stroke-width="0"
        d="M0,40 L0,30 L5,28 L10,25 L15,26 L20,24 L25,25 L30,20 L35,22 L40,18 L45,15 L50,18 L55,14 L60,16 L65,12 L70,14 L75,10 L80,8 L85,10 L90,5 L95,3 L100,5 L100,40 Z" />
</svg> 